<svg xmlns="http://www.w3.org/2000/svg" width="16px" height="16px" preserveAspectRatio="xMidYMid meet" viewBox="0 0 24 24">
    <path fill="#393E46"
        d="M7 22q-2.075 0-3.537-1.462Q2 19.075 2 17q0-2.075 1.463-3.538Q4.925 12 7 12t3.538 1.462Q12 14.925 12 17q0 2.075-1.462 3.538Q9.075 22 7 22Zm-2.125-2.875q.15.15.35.15q.2 0 .35-.15L7 17.7l1.4 1.425q.15.15.35.15q.2 0 .35-.15q.15-.15.15-.362q0-.213-.15-.363L7.7 17l1.425-1.425q.15-.15.15-.35q0-.2-.15-.35q-.15-.15-.35-.15q-.2 0-.35.15L7 16.3l-1.425-1.425q-.15-.15-.35-.15q-.2 0-.35.15q-.15.15-.15.35q0 .2.15.35L6.3 17l-1.425 1.425q-.15.15-.15.35q0 .2.15.35ZM19.9 20.3l-5.7-5.7q-.3-.325-.638-.662q-.337-.338-.662-.638q.95-.6 1.525-1.6T15 9.5q0-1.875-1.312-3.188Q12.375 5 10.5 5Q8.625 5 7.312 6.312Q6 7.625 6 9.5q0 .15.013.287q.012.138.037.288q-.45.05-.988.2q-.537.15-.962.35q-.05-.275-.075-.55Q4 9.8 4 9.5q0-2.725 1.888-4.613Q7.775 3 10.5 3t4.613 1.887Q17 6.775 17 9.5q0 1.075-.337 2.037q-.338.963-.938 1.763l5.575 5.6q.275.275.275.7q0 .425-.275.7q-.275.275-.7.275q-.425 0-.7-.275Z" />
</svg>